<svg xmlns="http://www.w3.org/2000/svg" viewBox="0 0 512 512" width="512" height="512">
  <rect width="512" height="512" fill="#000000"/>
  <circle cx="256" cy="256" r="160" fill="#ffffff"/>
  <path transform="scale(2.6666) translate(0, 0)" d="M78.6,113.6 C78.6,122 71.9,128.8 63.6,128.8 C55.3,128.8 48.6,122 48.6,113.7 C48.6,105.4 55.4,98.6 63.7,98.6 M63.6,118.8 C66.5,118.8 68.8,116.5 68.8,113.6 C68.8,110.7 66.5,108.4 63.6,108.4 C60.7,108.4 58.4,110.7 58.4,113.6 C58.4,116.5 60.7,118.8 63.6,118.8 M115.5,113.6 C115.5,122 108.8,128.8 100.5,128.8 C92.2,128.8 85.5,122 85.5,113.7 C85.5,105.4 92.3,98.6 100.6,98.6 M100.5,118.8 C103.4,118.8 105.7,116.5 105.7,113.6 C105.7,110.7 103.4,108.4 100.5,108.4 C97.6,108.4 95.3,110.7 95.3,113.6 C95.3,116.5 97.6,118.8 100.5,118.8 M85.1,102.3 L96.8,85 L85.9,76 L77.5,95.5 C77.5,95.5 81.3,98.8 85.1,102.3 L85.1,102.3 Z M82,91.8 L74,74.7 L69,76 L82,91.8 Z M110,76 L110.8,90.4 L117,100 L110,76 Z M97.5,86.2 L106,75.9 L100.5,70.5 L97.5,86.2 Z M100,54.4 C96.3,55.5 95,57.1 95,57.1 C95,57.1 94.6,56.7 93,56.3 C91.3,55.9 88.5,56.1 87.5,56 C86.5,55.9 84.7,55.6 84.4,56 C84.1,56.4 83,61 84.5,63 C86,65 85.6,68.6 85.5,69.5 C85.4,70.4 89.2,74.5 89.2,74.5 L92,72 L93.6,63 C93.6,63 94.4,62 95,62 C95.6,62 96,63 96,63 L96.6,71.7 L99.5,74.9 L104,70.5 C104,70.5 106,66.8 106.6,65.3 C107.2,63.8 108,61.4 106.5,59.3 C105,57.2 101,54 100,54.4 L100,54.4 Z" fill="#000000"/>
</svg>
